# xmcd
#
# Track frame offsets:
#	183
#	14243
#	26470
#	40383
#	52185
#	64085
#	76543
#	90828
#	106393
#	120243
#	134098
#	149973
#	163420
#	176608
#	191673
#	205935
#	221218
#	234770
#	248423
#	262358
#	276075
#	290030
#	303423
#	317988
#
# Disc length: 4432 seconds
#
# Revision: 0
# Processed by: cddbd v1.4PL0 Copyright (c) Steve Scherf et al.
# Submitted via: dBpowerAMP V4.0
#
DISCID=73114e18
DTITLE=Lonnie Johnson - Playing With The Strings
DYEAR=1900
DGENRE=
TTITLE0=Won't Don't Blues
TTITLE1=Mr. Johnson's Blues
TTITLE2=Falling Rain Blues
TTITLE3=Now Good Blues
TTITLE4=Newport Blues
TTITLE5=Nile of Genago
TTITLE6=To Do This You Gotta Know How
TTITLE7=Four Hands Are Better Than Two
TTITLE8=I'm Not Rough
TTITLE9=Hotter Than That
TTITLE10=Savoy Blues
TTITLE11=Playing With the Strings
TTITLE12=Stompin' 'Em Along Slow
TTITLE13=The Moochie
TTITLE14=Move Over
TTITLE15=Hot and Bothered
TTITLE16=Paducah
TTITLE17=Star Dust
TTITLE18=Jet Black Blues
TTITLE19=Blue Blood Blues
TTITLE20=Sitting on Top of the World
TTITLE21=Kansas City Man Blues
TTITLE22=I'm Nuts About That
TTITLE23=Racketeers Blues
EXTD=
EXTT0=
EXTT1=
EXTT2=
EXTT3=
EXTT4=
EXTT5=
EXTT6=
EXTT7=
EXTT8=
EXTT9=
EXTT10=
EXTT11=
EXTT12=
EXTT13=
EXTT14=
EXTT15=
EXTT16=
EXTT17=
EXTT18=
EXTT19=
EXTT20=
EXTT21=
EXTT22=
EXTT23=
PLAYORDER=
